<svg width="391" height="444" viewBox="0 0 391 444" fill="none" xmlns="http://www.w3.org/2000/svg">
<path d="M11.431 138.086C11.431 138.086 -16.446 210.074 22.728 282.589C61.902 355.105 142.607 393.391 207.197 426.137C271.787 458.883 338.858 442.936 370.731 389.299C402.604 335.662 358.886 297.371 358.834 220.881C358.783 144.391 370.281 124.139 328.871 59.5169C287.461 -5.10606 185.812 -19.4081 108.971 28.5209C32.131 76.4499 11.431 138.086 11.431 138.086Z" fill="#161815"/>
<path d="M56.099 62.4491C60.292 59.5481 64.706 56.9661 69.328 54.7541C102.651 38.8141 143.553 44.0621 175.579 62.4691C207.605 80.8761 231.57 110.967 249.011 143.529C256.98 158.406 264.105 174.392 276.906 185.391C293.412 199.574 315.704 202.775 335.373 210.499C406.893 238.585 407.709 341.56 345.022 380.011C320.311 395.168 289.793 399.741 261.397 401.858C222.063 404.791 182.011 403.288 144.025 392.668C106.039 382.048 70.098 361.843 44.684 331.678C11.4 292.171 -1.42799 238.458 0.250008 186.827C1.09901 160.698 5.49201 134.35 16.544 110.658C25.43 91.6111 38.902 74.3471 56.099 62.4491Z" fill="#161815"/>
<path d="M56.099 62.4491C60.292 59.5481 64.706 56.9661 69.328 54.7541C102.651 38.8141 143.553 44.0621 175.579 62.4691C207.605 80.8761 231.57 110.967 249.011 143.529C256.98 158.406 264.105 174.392 276.906 185.391C293.412 199.574 315.704 202.775 335.373 210.499C406.893 238.585 407.709 341.56 345.022 380.011C320.311 395.168 289.793 399.741 261.397 401.858C222.063 404.791 182.011 403.288 144.025 392.668C106.039 382.048 70.098 361.843 44.684 331.678C11.4 292.171 -1.42799 238.458 0.250008 186.827C1.09901 160.698 5.49201 134.35 16.544 110.658C25.43 91.6111 38.902 74.3471 56.099 62.4491Z" fill="#161815"/>
</svg>
