<svg width="352" height="229" viewBox="0 0 352 229" fill="none" xmlns="http://www.w3.org/2000/svg">
<path d="M90.864 35.9149C91.206 34.4289 91.392 32.885 91.392 31.296C91.392 19.957 82.2 10.764 70.86 10.764C69.006 10.764 67.21 11.014 65.502 11.475C62.121 5.49195 55.706 1.44995 48.344 1.44995C37.881 1.44995 29.327 9.60896 28.688 19.911C27.722 19.73 26.728 19.625 25.709 19.625C17.432 19.625 10.622 25.872 9.717 33.907C4.857 34.012 0.947998 37.977 0.947998 42.862C0.947998 47.813 4.96199 51.827 9.91299 51.827H85.2C90.151 51.827 94.165 47.813 94.165 42.862C94.165 40.06 92.878 37.5589 90.864 35.9149Z" stroke="white" stroke-miterlimit="10" stroke-linecap="round" stroke-linejoin="round"/>
<path d="M36.095 67.061V87.808" stroke="white" stroke-miterlimit="10" stroke-linecap="round" stroke-linejoin="round"/>
<path d="M36.095 54.613V62.911" stroke="white" stroke-miterlimit="10" stroke-linecap="round" stroke-linejoin="round"/>
<path d="M36.095 46.8569V51.2959" stroke="white" stroke-miterlimit="10" stroke-linecap="round" stroke-linejoin="round"/>
<path d="M32.177 85.3828L36.095 90.2328L40.013 85.3828" stroke="white" stroke-miterlimit="10" stroke-linecap="round" stroke-linejoin="round"/>
<path d="M49.467 75.9502V96.6972" stroke="white" stroke-miterlimit="10" stroke-linecap="round" stroke-linejoin="round"/>
<path d="M49.467 63.502V71.8" stroke="white" stroke-miterlimit="10" stroke-linecap="round" stroke-linejoin="round"/>
<path d="M49.467 55.7471V60.1861" stroke="white" stroke-miterlimit="10" stroke-linecap="round" stroke-linejoin="round"/>
<path d="M45.549 94.272L49.467 99.122L53.385 94.272" stroke="white" stroke-miterlimit="10" stroke-linecap="round" stroke-linejoin="round"/>
<path d="M61.961 58.5107V79.2577" stroke="white" stroke-miterlimit="10" stroke-linecap="round" stroke-linejoin="round"/>
<path d="M61.961 46.063V54.362" stroke="white" stroke-miterlimit="10" stroke-linecap="round" stroke-linejoin="round"/>
<path d="M61.961 38.3079V42.7469" stroke="white" stroke-miterlimit="10" stroke-linecap="round" stroke-linejoin="round"/>
<path d="M58.043 76.8328L61.962 81.6828L65.88 76.8328" stroke="white" stroke-miterlimit="10" stroke-linecap="round" stroke-linejoin="round"/>
<path d="M260.625 176.09C260.283 174.604 260.097 173.06 260.097 171.47C260.097 160.131 269.289 150.938 280.628 150.938C282.483 150.938 284.278 151.188 285.987 151.649C289.368 145.666 295.783 141.624 303.145 141.624C313.608 141.624 322.162 149.783 322.801 160.085C323.767 159.904 324.761 159.799 325.78 159.799C334.057 159.799 340.867 166.046 341.772 174.081C346.632 174.186 350.541 178.151 350.541 183.036C350.541 187.987 346.527 192.001 341.576 192.001H266.289C261.338 192.001 257.324 187.987 257.324 183.036C257.323 180.235 258.611 177.734 260.625 176.09Z" stroke="#6DE754" stroke-miterlimit="10" stroke-linecap="round" stroke-linejoin="round"/>
<path d="M312.19 199.631V178.884" stroke="#6DE754" stroke-miterlimit="10" stroke-linecap="round" stroke-linejoin="round"/>
<path d="M312.19 212.079V203.781" stroke="#6DE754" stroke-miterlimit="10" stroke-linecap="round" stroke-linejoin="round"/>
<path d="M312.19 219.834V215.395" stroke="#6DE754" stroke-miterlimit="10" stroke-linecap="round" stroke-linejoin="round"/>
<path d="M316.108 181.309L312.19 176.459L308.272 181.309" stroke="#6DE754" stroke-miterlimit="10" stroke-linecap="round" stroke-linejoin="round"/>
<path d="M298.818 190.742V169.995" stroke="#6DE754" stroke-miterlimit="10" stroke-linecap="round" stroke-linejoin="round"/>
<path d="M298.818 203.19V194.892" stroke="#6DE754" stroke-miterlimit="10" stroke-linecap="round" stroke-linejoin="round"/>
<path d="M298.818 210.945V206.506" stroke="#6DE754" stroke-miterlimit="10" stroke-linecap="round" stroke-linejoin="round"/>
<path d="M302.736 172.42L298.818 167.57L294.9 172.42" stroke="#6DE754" stroke-miterlimit="10" stroke-linecap="round" stroke-linejoin="round"/>
<path d="M286.324 208.181V187.434" stroke="#6DE754" stroke-miterlimit="10" stroke-linecap="round" stroke-linejoin="round"/>
<path d="M286.324 220.629V212.33" stroke="#6DE754" stroke-miterlimit="10" stroke-linecap="round" stroke-linejoin="round"/>
<path d="M286.324 228.384V223.945" stroke="#6DE754" stroke-miterlimit="10" stroke-linecap="round" stroke-linejoin="round"/>
<path d="M290.242 189.859L286.324 185.009L282.406 189.859" stroke="#6DE754" stroke-miterlimit="10" stroke-linecap="round" stroke-linejoin="round"/>
</svg>
