<svg width="501" height="500" viewBox="0 0 501 500" fill="none" xmlns="http://www.w3.org/2000/svg">
<path d="M460.414 95.7729C458.83 93.0859 457.168 90.4499 455.427 87.8699C432.244 53.5239 392.356 30.0319 353.115 19.4119C335.931 14.7609 318.185 12.3229 300.404 11.7199C183.789 7.76693 137.341 99.6749 98.799 123.394C60.257 147.113 0.961994 187.63 4.91499 272.62C8.86799 357.61 70.14 437.659 188.731 442.6C307.322 447.541 315.228 394.176 381.441 374.41C425.26 361.33 456.393 317.15 471.638 276.322C492.413 220.681 491.434 148.407 460.414 95.7729Z" fill="#92E3A9"/>
<path d="M460.414 95.7729C458.83 93.0859 457.168 90.4499 455.427 87.8699C432.244 53.5239 392.356 30.0319 353.115 19.4119C335.931 14.7609 318.185 12.3229 300.404 11.7199C183.789 7.76693 137.341 99.6749 98.799 123.394C60.257 147.113 0.961994 187.63 4.91499 272.62C8.86799 357.61 70.14 437.659 188.731 442.6C307.322 447.541 315.228 394.176 381.441 374.41C425.26 361.33 456.393 317.15 471.638 276.322C492.413 220.681 491.434 148.407 460.414 95.7729Z" fill="#161815"/>
<path d="M67.201 330.067C67.201 330.067 64.68 336.999 59.324 337.944C53.968 338.889 44.516 328.492 50.502 323.136C56.489 317.779 64.68 326.286 67.201 330.067Z" fill="#6DE754" stroke="#263238" stroke-miterlimit="10" stroke-linecap="round" stroke-linejoin="round"/>
<path d="M75.393 296.039C75.393 296.039 67.516 315.258 70.667 324.71C73.818 334.162 93.352 341.094 99.023 328.806C104.694 316.518 92.091 299.189 87.365 295.408C82.64 291.628 76.968 292.888 75.393 296.039Z" fill="#6DE754" stroke="#263238" stroke-miterlimit="10" stroke-linecap="round" stroke-linejoin="round"/>
<path d="M121.393 304.231C121.393 304.231 107.845 316.519 106.27 328.807C104.695 341.095 113.832 345.506 123.284 343.931C132.736 342.355 137.462 318.41 134.627 307.383C131.791 296.354 121.393 304.231 121.393 304.231Z" fill="#6DE754" stroke="#263238" stroke-miterlimit="10" stroke-linecap="round" stroke-linejoin="round"/>
<path d="M123.914 372.286C123.914 372.286 108.791 372.916 108.161 380.163C107.531 387.41 114.777 388.985 122.024 382.684C129.27 376.383 130.215 372.602 123.914 372.286Z" fill="#6DE754" stroke="#263238" stroke-miterlimit="10" stroke-linecap="round" stroke-linejoin="round"/>
<path d="M86.42 387.41C86.42 387.41 84.845 394.972 79.173 397.807C73.502 400.643 63.419 394.656 68.776 385.519C74.132 376.383 83.585 383.629 86.42 387.41Z" fill="#6DE754" stroke="#263238" stroke-miterlimit="10" stroke-linecap="round" stroke-linejoin="round"/>
<path d="M73.187 363.78C73.187 363.78 70.351 357.479 59.324 361.574C48.296 365.67 43.885 371.971 50.817 374.177C57.749 376.383 73.187 363.78 73.187 363.78Z" fill="#6DE754" stroke="#263238" stroke-miterlimit="10" stroke-linecap="round" stroke-linejoin="round"/>
<path d="M104.695 288.162C104.695 288.162 106.585 292.573 110.366 291.628C114.147 290.683 115.092 285.012 121.079 286.587C127.065 288.162 132.106 295.094 132.106 291.943C132.106 288.792 124.544 280.6 116.037 280.6C107.53 280.6 105.01 284.066 104.695 288.162Z" fill="#6DE754" stroke="#263238" stroke-miterlimit="10" stroke-linecap="round" stroke-linejoin="round"/>
<path d="M89.108 335.752C89.108 335.752 95.699 355.055 97.112 371.532C98.524 388.01 97.112 414.375 97.112 414.375" stroke="white" stroke-miterlimit="10" stroke-linecap="round" stroke-linejoin="round"/>
<path d="M112.177 342.343C112.177 342.343 104.644 364.471 102.761 378.594C100.878 392.718 100.407 414.375 100.407 414.375" stroke="white" stroke-miterlimit="10" stroke-linecap="round" stroke-linejoin="round"/>
<path d="M108.411 381.89C108.411 381.89 105.115 382.832 103.232 414.846" stroke="white" stroke-miterlimit="10" stroke-linecap="round" stroke-linejoin="round"/>
<path d="M86.42 387.41C86.42 387.41 89.579 384.715 91.462 390.835C93.345 396.955 92.404 413.904 92.404 413.904" stroke="white" stroke-miterlimit="10" stroke-linecap="round" stroke-linejoin="round"/>
<path d="M94.567 384.377C97.03 398.178 94.758 413.434 94.758 413.434" stroke="white" stroke-miterlimit="10" stroke-linecap="round" stroke-linejoin="round"/>
<path d="M73.187 363.78C73.187 363.78 86.754 361.176 92.403 376.241C92.957 377.719 93.425 379.265 93.819 380.852" stroke="white" stroke-miterlimit="10" stroke-linecap="round" stroke-linejoin="round"/>
<path d="M129.807 349.185C129.807 349.185 132.643 342.884 143.67 346.979C154.697 351.075 159.108 357.376 152.177 359.582C145.246 361.788 129.807 349.185 129.807 349.185Z" fill="#6DE754" stroke="#263238" stroke-miterlimit="10" stroke-linecap="round" stroke-linejoin="round"/>
<path d="M117.747 351.944C115.02 353.81 112.4 356.822 110.591 361.646C104.942 376.711 105.586 413.904 105.586 413.904" stroke="white" stroke-miterlimit="10" stroke-linecap="round" stroke-linejoin="round"/>
<path d="M129.807 349.185C129.807 349.185 125.31 348.322 120.416 350.464" stroke="white" stroke-miterlimit="10" stroke-linecap="round" stroke-linejoin="round"/>
<path d="M82.059 339.678C85.002 343.134 87.856 347.806 90.05 354.113C97.583 375.77 100.407 403.547 98.995 413.904" stroke="white" stroke-miterlimit="10" stroke-linecap="round" stroke-linejoin="round"/>
<path d="M67.201 330.067C67.201 330.067 73.77 331.092 80.42 337.882" stroke="white" stroke-miterlimit="10" stroke-linecap="round" stroke-linejoin="round"/>
<path d="M101.19 359.946C100.731 387.278 100.407 414.376 100.407 414.376" stroke="white" stroke-miterlimit="10" stroke-linecap="round" stroke-linejoin="round"/>
<path d="M104.695 288.162C104.695 288.162 103.232 286.789 102.291 311.27C101.925 320.783 101.559 338.471 101.249 356.544" stroke="white" stroke-miterlimit="10" stroke-linecap="round" stroke-linejoin="round"/>
<path d="M115.488 462.396H84.855C82.754 462.396 80.996 460.801 80.793 458.71L76.396 413.434H123.946L119.549 458.71C119.347 460.801 117.589 462.396 115.488 462.396Z" fill="#161815" stroke="#6DE754" stroke-miterlimit="10" stroke-linecap="round" stroke-linejoin="round"/>
<path d="M77.814 428.028L78.317 433.207H122.027L122.529 428.028H77.814Z" fill="white" stroke="#6DE754" stroke-miterlimit="10" stroke-linecap="round" stroke-linejoin="round"/>
<path d="M120.929 444.506L121.204 441.681H79.14L79.414 444.506H120.929Z" fill="white" stroke="#6DE754" stroke-miterlimit="10" stroke-linecap="round" stroke-linejoin="round"/>
<path d="M291.48 321.646H280.766V343.716H291.48V321.646Z" fill="#6DE754" stroke="white" stroke-miterlimit="10" stroke-linecap="round" stroke-linejoin="round"/>
<path d="M306.141 316.917H295.427V343.716H306.141V316.917Z" stroke="white" stroke-miterlimit="10" stroke-linecap="round" stroke-linejoin="round"/>
<path d="M320.803 304.831H310.089V343.716H320.803V304.831Z" fill="#6DE754" stroke="white" stroke-miterlimit="10" stroke-linecap="round" stroke-linejoin="round"/>
<path d="M335.465 297.474H324.751V343.715H335.465V297.474Z" stroke="white" stroke-miterlimit="10" stroke-linecap="round" stroke-linejoin="round"/>
<path d="M280.54 281.298H312.294" stroke="white" stroke-miterlimit="10" stroke-linecap="round" stroke-linejoin="round"/>
<path d="M280.54 288.269H312.294" stroke="white" stroke-miterlimit="10" stroke-linecap="round" stroke-linejoin="round"/>
<path d="M280.54 295.239H312.294" stroke="white" stroke-miterlimit="10" stroke-linecap="round" stroke-linejoin="round"/>
<path d="M213.531 307.061H167.854C166.608 307.061 165.598 306.051 165.598 304.805C165.598 303.559 166.608 302.549 167.854 302.549H213.531C214.777 302.549 215.787 303.559 215.787 304.805C215.787 306.051 214.777 307.061 213.531 307.061Z" stroke="white" stroke-miterlimit="10" stroke-linecap="round" stroke-linejoin="round"/>
<path d="M197.721 302.55H167.854C166.608 302.55 165.598 303.56 165.598 304.806C165.598 306.052 166.608 307.062 167.854 307.062H197.721V302.55Z" fill="#6DE754" stroke="white" stroke-miterlimit="10" stroke-linecap="round" stroke-linejoin="round"/>
<path d="M213.531 318.903H167.854C166.608 318.903 165.598 317.893 165.598 316.647C165.598 315.401 166.608 314.391 167.854 314.391H213.531C214.777 314.391 215.787 315.401 215.787 316.647C215.787 317.893 214.777 318.903 213.531 318.903Z" stroke="white" stroke-miterlimit="10" stroke-linecap="round" stroke-linejoin="round"/>
<path d="M209.188 314.392H167.854C166.608 314.392 165.598 315.402 165.598 316.648C165.598 317.894 166.608 318.904 167.854 318.904H209.188V314.392Z" fill="#6DE754" stroke="white" stroke-miterlimit="10" stroke-linecap="round" stroke-linejoin="round"/>
<path d="M213.531 330.745H167.854C166.608 330.745 165.598 329.735 165.598 328.489C165.598 327.243 166.608 326.233 167.854 326.233H213.531C214.777 326.233 215.787 327.243 215.787 328.489C215.787 329.735 214.777 330.745 213.531 330.745Z" stroke="white" stroke-miterlimit="10" stroke-linecap="round" stroke-linejoin="round"/>
<path d="M177.336 326.234H167.854C166.608 326.234 165.598 327.244 165.598 328.49C165.598 329.736 166.608 330.746 167.854 330.746H177.336V326.234Z" fill="#6DE754" stroke="white" stroke-miterlimit="10" stroke-linecap="round" stroke-linejoin="round"/>
<path d="M213.531 342.587H167.854C166.608 342.587 165.598 341.577 165.598 340.331C165.598 339.085 166.608 338.075 167.854 338.075H213.531C214.777 338.075 215.787 339.085 215.787 340.331C215.787 341.578 214.777 342.587 213.531 342.587Z" stroke="white" stroke-miterlimit="10" stroke-linecap="round" stroke-linejoin="round"/>
<path d="M212.691 338.076H167.854C166.608 338.076 165.598 339.086 165.598 340.332C165.598 341.578 166.608 342.588 167.854 342.588H212.691V338.076Z" fill="#6DE754" stroke="white" stroke-miterlimit="10" stroke-linecap="round" stroke-linejoin="round"/>
<path d="M174.751 281.298H206.505" stroke="white" stroke-miterlimit="10" stroke-linecap="round" stroke-linejoin="round"/>
<path d="M174.751 288.269H206.505" stroke="white" stroke-miterlimit="10" stroke-linecap="round" stroke-linejoin="round"/>
<path d="M174.751 295.239H206.505" stroke="white" stroke-miterlimit="10" stroke-linecap="round" stroke-linejoin="round"/>
<path d="M391.939 90.714C391.939 88.265 389.954 86.28 387.505 86.28C385.056 86.28 383.071 88.265 383.071 90.714C383.071 93.163 385.056 95.148 387.505 95.148C389.954 95.148 391.939 93.163 391.939 90.714Z" stroke="white" stroke-miterlimit="10" stroke-linecap="round" stroke-linejoin="round"/>
<path d="M406.903 90.714C406.903 88.265 404.918 86.28 402.469 86.28C400.02 86.28 398.035 88.265 398.035 90.714C398.035 93.163 400.02 95.148 402.469 95.148C404.918 95.148 406.903 93.163 406.903 90.714Z" fill="#6DE754" stroke="#263238" stroke-miterlimit="10" stroke-linecap="round" stroke-linejoin="round"/>
<path d="M391.939 104.569C391.939 102.12 389.954 100.135 387.505 100.135C385.056 100.135 383.071 102.12 383.071 104.569C383.071 107.018 385.056 109.003 387.505 109.003C389.954 109.003 391.939 107.018 391.939 104.569Z" stroke="white" stroke-miterlimit="10" stroke-linecap="round" stroke-linejoin="round"/>
<path d="M406.903 104.569C406.903 102.12 404.918 100.135 402.469 100.135C400.02 100.135 398.035 102.12 398.035 104.569C398.035 107.018 400.02 109.003 402.469 109.003C404.918 109.003 406.903 107.018 406.903 104.569Z" stroke="white" stroke-miterlimit="10" stroke-linecap="round" stroke-linejoin="round"/>
<path d="M391.939 118.424C391.939 115.975 389.954 113.99 387.505 113.99C385.056 113.99 383.071 115.975 383.071 118.424C383.071 120.873 385.056 122.858 387.505 122.858C389.954 122.858 391.939 120.873 391.939 118.424Z" fill="white" stroke="#263238" stroke-miterlimit="10" stroke-linecap="round" stroke-linejoin="round"/>
<path d="M406.903 118.424C406.903 115.975 404.918 113.99 402.469 113.99C400.02 113.99 398.035 115.975 398.035 118.424C398.035 120.873 400.02 122.858 402.469 122.858C404.918 122.858 406.903 120.873 406.903 118.424Z" stroke="white" stroke-miterlimit="10" stroke-linecap="round" stroke-linejoin="round"/>
<path d="M241.153 309.909C243.602 309.909 245.587 307.924 245.587 305.475C245.587 303.026 243.602 301.041 241.153 301.041C238.704 301.041 236.719 303.026 236.719 305.475C236.719 307.924 238.704 309.909 241.153 309.909Z" stroke="white" stroke-miterlimit="10" stroke-linecap="round" stroke-linejoin="round"/>
<path d="M256.117 309.909C258.566 309.909 260.551 307.924 260.551 305.475C260.551 303.026 258.566 301.041 256.117 301.041C253.668 301.041 251.683 303.026 251.683 305.475C251.683 307.924 253.668 309.909 256.117 309.909Z" stroke="white" stroke-miterlimit="10" stroke-linecap="round" stroke-linejoin="round"/>
<path d="M241.153 323.765C243.602 323.765 245.587 321.78 245.587 319.331C245.587 316.882 243.602 314.897 241.153 314.897C238.704 314.897 236.719 316.882 236.719 319.331C236.719 321.78 238.704 323.765 241.153 323.765Z" fill="#6DE754" stroke="white" stroke-miterlimit="10" stroke-linecap="round" stroke-linejoin="round"/>
<path d="M256.117 323.765C258.566 323.765 260.551 321.78 260.551 319.331C260.551 316.882 258.566 314.897 256.117 314.897C253.668 314.897 251.683 316.882 251.683 319.331C251.683 321.78 253.668 323.765 256.117 323.765Z" fill="#6DE754" stroke="white" stroke-miterlimit="10" stroke-linecap="round" stroke-linejoin="round"/>
<path d="M245.587 333.186C245.587 330.737 243.602 328.752 241.153 328.752C238.704 328.752 236.719 330.737 236.719 333.186C236.719 335.635 238.704 337.62 241.153 337.62C243.602 337.619 245.587 335.634 245.587 333.186Z" stroke="white" stroke-miterlimit="10" stroke-linecap="round" stroke-linejoin="round"/>
<path d="M260.551 333.186C260.551 330.737 258.566 328.752 256.117 328.752C253.668 328.752 251.683 330.737 251.683 333.186C251.683 335.635 253.668 337.62 256.117 337.62C258.566 337.619 260.551 335.634 260.551 333.186Z" fill="white" stroke="white" stroke-miterlimit="10" stroke-linecap="round" stroke-linejoin="round"/>
<path d="M140.865 85.8559V75.4039L130.427 74.2429C129.854 72.0349 128.983 69.9489 127.868 68.0219L134.461 59.7789L127.07 52.3879L118.863 58.9519C116.944 57.8229 114.863 56.9409 112.66 56.3529L111.494 45.8669H101.042L99.881 56.3049C97.673 56.8769 95.587 57.7489 93.66 58.8639L85.417 52.2709L78.026 59.6619L84.59 67.8689C83.461 69.7879 82.579 71.8699 81.991 74.0719L71.507 75.2399V85.6919L81.945 86.8529C82.518 89.0609 83.389 91.1469 84.504 93.0739L77.911 101.317L85.302 108.708L93.509 102.144C95.428 103.273 97.51 104.155 99.712 104.743L100.878 115.229H111.33L112.491 104.791C114.699 104.218 116.784 103.347 118.711 102.232L126.954 108.825L134.345 101.434L127.781 93.2269C128.91 91.3079 129.792 89.2259 130.38 87.0239L140.865 85.8559ZM106.186 93.0219C99.297 93.0219 93.712 87.4369 93.712 80.5479C93.712 73.6589 99.297 68.0739 106.186 68.0739C113.075 68.0739 118.66 73.6589 118.66 80.5479C118.66 87.4369 113.075 93.0219 106.186 93.0219Z" stroke="#161815" stroke-miterlimit="10" stroke-linecap="round" stroke-linejoin="round"/>
<path d="M181.939 64.876L180.781 57.956L173.742 58.344C173.118 56.946 172.31 55.661 171.358 54.509L174.809 48.321L169.097 44.247L164.391 49.502C162.995 48.967 161.52 48.614 159.996 48.469L158.062 41.656L151.142 42.814L151.53 49.853C150.132 50.477 148.847 51.284 147.695 52.237L141.507 48.786L137.433 54.498L142.688 59.204C142.153 60.6 141.8 62.075 141.655 63.599L134.842 65.533L136 72.453L143.039 72.065C143.663 73.463 144.471 74.747 145.423 75.9L141.972 82.088L147.684 86.162L152.39 80.907C153.786 81.442 155.261 81.795 156.785 81.94L158.719 88.753L165.639 87.595L165.251 80.556C166.649 79.932 167.934 79.124 169.086 78.172L175.274 81.623L179.348 75.911L174.093 71.205C174.628 69.809 174.981 68.334 175.126 66.81L181.939 64.876ZM159.773 73.463C155.212 74.226 150.896 71.148 150.132 66.587C149.369 62.026 152.447 57.71 157.008 56.946C161.569 56.183 165.885 59.261 166.648 63.822C167.413 68.383 164.334 72.7 159.773 73.463Z" stroke="#161815" stroke-miterlimit="10" stroke-linecap="round" stroke-linejoin="round"/>
<path d="M380.346 179.589V169.137L369.908 167.976C369.335 165.768 368.464 163.682 367.349 161.756L373.942 153.513L366.551 146.122L358.344 152.686C356.425 151.557 354.344 150.675 352.141 150.087L350.975 139.601H340.523L339.362 150.039C337.154 150.611 335.069 151.483 333.142 152.598L324.899 146.005L317.508 153.396L324.072 161.603C322.943 163.522 322.061 165.604 321.473 167.806L310.987 168.972V179.424L321.425 180.585C321.998 182.793 322.869 184.879 323.984 186.806L317.391 195.049L324.782 202.44L332.989 195.876C334.908 197.005 336.99 197.887 339.192 198.475L340.358 208.961H350.81L351.971 198.523C354.179 197.951 356.265 197.079 358.192 195.964L366.435 202.557L373.826 195.166L367.262 186.959C368.391 185.04 369.273 182.958 369.861 180.756L380.346 179.589ZM345.667 186.755C338.778 186.755 333.193 181.17 333.193 174.281C333.193 167.392 338.778 161.807 345.667 161.807C352.556 161.807 358.141 167.392 358.141 174.281C358.141 181.17 352.556 186.755 345.667 186.755Z" stroke="#6DE754" stroke-miterlimit="10" stroke-linecap="round" stroke-linejoin="round"/>
<path d="M421.419 158.609L420.261 151.689L413.222 152.077C412.598 150.679 411.79 149.394 410.838 148.242L414.289 142.054L408.577 137.98L403.871 143.235C402.475 142.7 401 142.347 399.476 142.202L397.542 135.389L390.622 136.547L391.01 143.586C389.612 144.21 388.328 145.018 387.175 145.97L380.987 142.519L376.913 148.231L382.168 152.937C381.633 154.333 381.28 155.808 381.135 157.332L374.322 159.266L375.48 166.186L382.519 165.798C383.143 167.196 383.951 168.48 384.903 169.633L381.451 175.821L387.163 179.895L391.869 174.64C393.265 175.175 394.74 175.528 396.264 175.673L398.198 182.486L405.118 181.328L404.73 174.289C406.128 173.665 407.413 172.857 408.565 171.905L414.753 175.356L418.827 169.644L413.572 164.938C414.107 163.542 414.46 162.067 414.605 160.543L421.419 158.609ZM399.254 167.196C394.693 167.959 390.377 164.881 389.613 160.32C388.85 155.759 391.928 151.443 396.489 150.679C401.05 149.916 405.366 152.994 406.13 157.555C406.894 162.117 403.815 166.433 399.254 167.196Z" stroke="#6DE754" stroke-miterlimit="10" stroke-linecap="round" stroke-linejoin="round"/>
<path d="M358.362 272.077H100.346C96.213 272.077 92.863 268.727 92.863 264.594V80.911C92.863 76.778 96.213 73.428 100.346 73.428H358.361C362.494 73.428 365.844 76.778 365.844 80.911V264.594C365.845 268.727 362.495 272.077 358.362 272.077Z" fill="#1E201D"/>
<path d="M362.29 266.84H104.275C100.142 266.84 96.792 263.49 96.792 259.357V75.6729C96.792 71.5399 100.142 68.1899 104.275 68.1899H362.29C366.423 68.1899 369.773 71.5399 369.773 75.6729V259.356C369.773 263.489 366.423 266.84 362.29 266.84Z" fill="white" stroke="#263238" stroke-miterlimit="10" stroke-linecap="round" stroke-linejoin="round"/>
<path d="M343.958 97.963V120.563C343.958 122.133 342.688 123.403 341.118 123.403H304.558C302.988 123.403 301.718 122.133 301.718 120.563V97.963C301.718 96.393 302.988 95.123 304.558 95.123H341.118C342.688 95.123 343.958 96.393 343.958 97.963Z" fill="#263238" stroke="#263238" stroke-miterlimit="10" stroke-linecap="round" stroke-linejoin="round"/>
<path d="M346.571 95.35V117.95C346.571 119.52 345.301 120.79 343.731 120.79H307.171C305.601 120.79 304.331 119.52 304.331 117.95V95.35C304.331 93.78 305.601 92.51 307.171 92.51H343.731C345.301 92.51 346.571 93.78 346.571 95.35Z" fill="white" stroke="#263238" stroke-miterlimit="10" stroke-linecap="round" stroke-linejoin="round"/>
<path d="M346.571 101.94H304.331V109.1H346.571V101.94Z" fill="#263238" stroke="#263238" stroke-miterlimit="10" stroke-linecap="round" stroke-linejoin="round"/>
<path d="M337.897 97.9781C337.897 99.1241 336.969 100.052 335.823 100.052C334.677 100.052 333.749 99.1231 333.749 97.9781C333.749 96.8331 334.678 95.9041 335.823 95.9041C336.968 95.9041 337.897 96.8321 337.897 97.9781Z" fill="white" stroke="#263238" stroke-miterlimit="10" stroke-linecap="round" stroke-linejoin="round"/>
<path d="M341.857 97.9781C341.857 99.1241 340.928 100.052 339.783 100.052C338.638 100.052 337.709 99.1231 337.709 97.9781C337.709 96.8331 338.638 95.9041 339.783 95.9041C340.928 95.9041 341.857 96.8321 341.857 97.9781Z" fill="white" stroke="#263238" stroke-miterlimit="10" stroke-linecap="round" stroke-linejoin="round"/>
<path d="M160.313 96.739H116.192V122.005H160.313V96.739Z" fill="#263238" stroke="#263238" stroke-miterlimit="10" stroke-linecap="round" stroke-linejoin="round"/>
<path d="M162.608 94.0181H118.487V119.284H162.608V94.0181Z" fill="white" stroke="#263238" stroke-miterlimit="10" stroke-linecap="round" stroke-linejoin="round"/>
<path d="M122.502 100.4V112.809C123.901 112.809 125.036 113.943 125.036 115.343C125.036 115.375 125.028 115.404 125.027 115.436H156.069C156.068 115.404 156.06 115.375 156.06 115.343C156.06 113.944 157.194 112.809 158.594 112.809V100.4C157.194 100.4 156.06 99.266 156.06 97.866H125.037C125.036 99.266 123.901 100.4 122.502 100.4ZM140.548 101.183C143.568 101.183 146.016 103.631 146.016 106.651C146.016 109.671 143.568 112.119 140.548 112.119C137.528 112.119 135.08 109.671 135.08 106.651C135.08 103.631 137.528 101.183 140.548 101.183Z" fill="white" stroke="#263238" stroke-miterlimit="10" stroke-linecap="round" stroke-linejoin="round"/>
<path d="M140.685 111.413V110.659C140.069 110.635 139.61 110.434 139.308 110.058C139.005 109.681 138.839 109.146 138.81 108.452L139.958 108.228C139.97 108.509 140.003 108.757 140.057 108.973C140.111 109.188 140.196 109.354 140.313 109.471C140.429 109.588 140.583 109.646 140.775 109.646C140.99 109.646 141.144 109.582 141.237 109.453C141.33 109.325 141.376 109.162 141.376 108.964C141.376 108.647 141.303 108.387 141.156 108.183C141.01 107.98 140.82 107.776 140.587 107.573L139.662 106.765C139.495 106.616 139.349 106.458 139.223 106.294C139.098 106.129 138.999 105.944 138.927 105.738C138.856 105.532 138.82 105.291 138.82 105.016C138.82 104.471 138.975 104.045 139.287 103.737C139.598 103.429 140.016 103.26 140.543 103.23V102.503H140.929V103.221C141.234 103.239 141.486 103.306 141.683 103.423C141.88 103.54 142.038 103.689 142.154 103.872C142.27 104.055 142.357 104.259 142.414 104.487C142.472 104.714 142.506 104.95 142.518 105.195L141.387 105.392C141.375 105.165 141.352 104.96 141.316 104.778C141.28 104.595 141.212 104.452 141.114 104.347C141.015 104.242 140.871 104.196 140.679 104.208C140.475 104.214 140.322 104.28 140.216 104.405C140.112 104.53 140.06 104.689 140.06 104.881C140.06 105.138 140.117 105.346 140.23 105.504C140.344 105.663 140.485 105.819 140.652 105.975L141.567 106.773C141.758 106.947 141.936 107.135 142.101 107.338C142.265 107.542 142.397 107.769 142.496 108.02C142.595 108.271 142.644 108.559 142.644 108.881C142.644 109.204 142.58 109.493 142.451 109.747C142.322 110.001 142.142 110.206 141.908 110.361C141.675 110.517 141.397 110.613 141.074 110.648V111.411H140.685V111.413Z" fill="#263238"/>
<path d="M335.429 144.552V144.045C335.429 142.216 333.946 140.732 332.116 140.732H313.579C311.75 140.732 310.266 142.215 310.266 144.045V144.552V148.198V176.678V179.218V179.725C310.266 181.554 311.749 183.038 313.579 183.038H314.085C314.085 183.038 314.085 183.038 314.086 183.038H331.609H332.116C333.945 183.038 335.429 181.555 335.429 179.725V179.219V144.552Z" fill="#263238" stroke="#263238" stroke-miterlimit="10" stroke-linecap="round" stroke-linejoin="round"/>
<path d="M334.212 179.887H316.689C314.58 179.887 312.869 178.177 312.869 176.067V141.4C312.869 139.291 314.579 137.58 316.689 137.58H334.212C336.321 137.58 338.032 139.29 338.032 141.4V176.067C338.032 178.177 336.322 179.887 334.212 179.887Z" fill="white" stroke="#263238" stroke-miterlimit="10" stroke-linecap="round" stroke-linejoin="round"/>
<path d="M338.032 145.047V140.894C338.032 139.064 336.549 137.581 334.719 137.581H316.182C314.353 137.581 312.869 139.064 312.869 140.894V145.047H338.032Z" fill="white" stroke="#263238" stroke-miterlimit="10" stroke-linecap="round" stroke-linejoin="round"/>
<path d="M312.87 173.527V176.574C312.87 178.403 314.353 179.887 316.183 179.887H334.72C336.549 179.887 338.033 178.404 338.033 176.574V173.527H312.87Z" fill="white" stroke="#263238" stroke-miterlimit="10" stroke-linecap="round" stroke-linejoin="round"/>
<path d="M165.496 177.523V144.568C165.496 143.208 164.393 142.105 163.033 142.105H115.555C114.195 142.105 113.092 143.208 113.092 144.568V177.523H109.117L110.796 179.387C112.214 180.961 114.233 181.86 116.351 181.86H163.611C165.729 181.86 167.748 180.961 169.166 179.387L170.845 177.523H165.496Z" fill="#263238" stroke="#263238" stroke-miterlimit="10" stroke-linecap="round" stroke-linejoin="round"/>
<path d="M167.362 175.283H114.958V142.328C114.958 140.968 116.061 139.865 117.421 139.865H164.899C166.259 139.865 167.362 140.968 167.362 142.328V175.283Z" fill="white" stroke="#263238" stroke-miterlimit="10" stroke-linecap="round" stroke-linejoin="round"/>
<path d="M165.522 176.473H116.798V143.981C116.798 142.621 117.901 141.518 119.261 141.518H163.059C164.419 141.518 165.522 142.621 165.522 143.981V176.473Z" fill="white" stroke="#263238" stroke-miterlimit="10" stroke-linecap="round" stroke-linejoin="round"/>
<path d="M118.217 179.62H165.477C167.595 179.62 169.614 178.721 171.032 177.147L172.711 175.283H110.983L112.662 177.147C114.079 178.721 116.098 179.62 118.217 179.62Z" fill="white" stroke="#263238" stroke-miterlimit="10" stroke-linecap="round" stroke-linejoin="round"/>
<path d="M335.632 206.033H313.02C310.924 206.033 309.224 207.732 309.224 209.829V220.643C309.224 222.739 310.923 224.439 313.02 224.439H334.005L339.428 231.268V220.643V209.829C339.428 207.732 337.728 206.033 335.632 206.033Z" fill="#263238" stroke="#263238" stroke-miterlimit="10" stroke-linecap="round" stroke-linejoin="round"/>
<path d="M337.055 204.183H314.443C312.347 204.183 310.647 205.882 310.647 207.979V218.793C310.647 220.889 312.346 222.589 314.443 222.589H335.428L340.851 229.418V218.793V207.979C340.85 205.883 339.151 204.183 337.055 204.183Z" fill="white" stroke="#263238" stroke-miterlimit="10" stroke-linecap="round" stroke-linejoin="round"/>
<path d="M305.982 218.84H320.947C322.334 218.84 323.459 219.965 323.459 221.352V228.509C323.459 229.896 322.334 231.021 320.947 231.021H307.059L303.47 235.541V228.509V221.352C303.47 219.965 304.595 218.84 305.982 218.84Z" fill="#263238" stroke="#263238" stroke-miterlimit="10" stroke-linecap="round" stroke-linejoin="round"/>
<path d="M307.151 217.458H322.116C323.503 217.458 324.628 218.583 324.628 219.97V227.127C324.628 228.514 323.503 229.639 322.116 229.639H308.228L304.639 234.159V227.127V219.97C304.639 218.583 305.763 217.458 307.151 217.458Z" fill="white" stroke="#263238" stroke-miterlimit="10" stroke-linecap="round" stroke-linejoin="round"/>
<path d="M316.033 209.387H335.234" stroke="#263238" stroke-miterlimit="10" stroke-linecap="round" stroke-linejoin="round"/>
<path d="M316.033 213.417H335.234" stroke="#263238" stroke-miterlimit="10" stroke-linecap="round" stroke-linejoin="round"/>
<path d="M316.033 217.447H335.234" stroke="#263238" stroke-miterlimit="10" stroke-linecap="round" stroke-linejoin="round"/>
<path d="M307.737 222.188H322.137" stroke="#263238" stroke-miterlimit="10" stroke-linecap="round" stroke-linejoin="round"/>
<path d="M307.737 225.506H322.137" stroke="#263238" stroke-miterlimit="10" stroke-linecap="round" stroke-linejoin="round"/>
<path d="M140.783 244.984C152.532 244.984 162.056 235.46 162.056 223.711C162.056 211.962 152.532 202.438 140.783 202.438C129.034 202.438 119.51 211.962 119.51 223.711C119.51 235.46 129.034 244.984 140.783 244.984Z" fill="#263238" stroke="#263238" stroke-miterlimit="10" stroke-linecap="round" stroke-linejoin="round"/>
<path d="M141.766 242.037C153.515 242.037 163.039 232.513 163.039 220.764C163.039 209.015 153.515 199.491 141.766 199.491C130.017 199.491 120.493 209.015 120.493 220.764C120.493 232.513 130.017 242.037 141.766 242.037Z" fill="white" stroke="#263238" stroke-miterlimit="10" stroke-linecap="round" stroke-linejoin="round"/>
<path d="M131.108 207.729C127.672 210.26 128.304 216.095 130.159 219.347C132.307 223.112 135.781 225.955 139.04 228.718C139.391 229.016 139.744 229.312 140.084 229.622C142.528 231.843 145.84 233.593 149.133 234.072C152.29 234.531 154.063 232.355 154.677 229.464C154.804 228.863 154.612 228.24 154.177 227.806L149.279 222.908C149.279 222.908 148.403 222.397 147.746 223.054C147.089 223.711 144.9 225.535 144.9 225.535C144.9 225.535 140.594 224.002 135.997 216.632C135.997 216.632 138.478 213.932 138.697 213.494C138.916 213.056 138.843 212.326 138.405 211.742C137.656 210.744 136.548 209.915 135.635 209.073C134.198 207.748 133.075 206.281 131.108 207.729Z" fill="#263238" stroke="#263238" stroke-miterlimit="10" stroke-linecap="round" stroke-linejoin="round"/>
<path d="M306.372 102.76C310.583 101.762 313.189 97.5395 312.191 93.3282C311.194 89.1169 306.971 86.5117 302.76 87.5092C298.548 88.5068 295.943 92.7294 296.941 96.9406C297.938 101.152 302.161 103.757 306.372 102.76Z" fill="#263238" stroke="#263238" stroke-miterlimit="10" stroke-linecap="round" stroke-linejoin="round"/>
<path d="M305.391 98.6471C305.324 98.6471 305.256 98.6431 305.189 98.6331C304.715 98.5691 304.3 98.2821 304.072 97.8611L301.607 93.3101C301.212 92.5811 301.484 91.6711 302.212 91.2771C302.939 90.8811 303.851 91.1521 304.245 91.8811L305.732 94.6291L314.171 85.8671C314.746 85.2701 315.694 85.2531 316.291 85.8271C316.888 86.4021 316.906 87.3511 316.331 87.9481L306.471 98.1881C306.186 98.4831 305.795 98.6471 305.391 98.6471Z" fill="#6DE754" stroke="#263238" stroke-miterlimit="10" stroke-linecap="round" stroke-linejoin="round"/>
<path d="M163.725 148.195C168.053 148.195 171.561 144.687 171.561 140.359C171.561 136.031 168.053 132.523 163.725 132.523C159.397 132.523 155.889 136.031 155.889 140.359C155.889 144.687 159.397 148.195 163.725 148.195Z" fill="#263238" stroke="#263238" stroke-miterlimit="10" stroke-linecap="round" stroke-linejoin="round"/>
<path d="M164.558 143.884C164.491 143.884 164.423 143.88 164.356 143.87C163.882 143.806 163.467 143.519 163.239 143.098L160.774 138.547C160.379 137.818 160.651 136.908 161.379 136.514C162.106 136.119 163.018 136.389 163.412 137.119L164.899 139.867L173.338 131.105C173.913 130.508 174.861 130.491 175.458 131.065C176.055 131.64 176.073 132.589 175.498 133.186L165.638 143.426C165.354 143.72 164.962 143.884 164.558 143.884Z" fill="#6DE754" stroke="#263238" stroke-miterlimit="10" stroke-linecap="round" stroke-linejoin="round"/>
<path d="M311.133 213.076C315.461 213.076 318.969 209.568 318.969 205.24C318.969 200.912 315.461 197.404 311.133 197.404C306.805 197.404 303.297 200.912 303.297 205.24C303.297 209.568 306.805 213.076 311.133 213.076Z" fill="#263238" stroke="#263238" stroke-miterlimit="10" stroke-linecap="round" stroke-linejoin="round"/>
<path d="M311.966 208.765C311.899 208.765 311.831 208.761 311.764 208.751C311.29 208.686 310.875 208.4 310.647 207.979L308.182 203.428C307.787 202.699 308.059 201.789 308.787 201.395C309.514 200.999 310.426 201.27 310.82 201.999L312.307 204.747L320.745 195.985C321.32 195.388 322.268 195.371 322.865 195.945C323.462 196.52 323.48 197.469 322.905 198.066L313.045 208.306C312.762 208.601 312.37 208.765 311.966 208.765Z" fill="#6DE754" stroke="#263238" stroke-miterlimit="10" stroke-linecap="round" stroke-linejoin="round"/>
<path d="M274.366 211.943L266.904 230.489L264.026 231.86L267.178 247.484L290.404 216.235C290.404 216.235 286.624 207.513 274.366 211.943Z" fill="white" stroke="#263238" stroke-miterlimit="10" stroke-linecap="round" stroke-linejoin="round"/>
<path d="M257.885 266.84L265.782 266.671V245.565H195.226V266.84H257.885Z" fill="#6DE754" stroke="#263238" stroke-miterlimit="10" stroke-linecap="round" stroke-linejoin="round"/>
<path d="M214.506 140.788C214.506 140.788 182.882 152.986 181.301 156.6C179.72 160.214 175.956 205.169 175.956 205.169C175.956 205.169 175.654 214.879 177.687 215.782C179.72 216.686 193.951 212.846 193.951 212.846C193.951 212.846 193.725 249.666 195.08 250.795C196.435 251.925 262.846 250.343 264.202 248.988C265.557 247.633 265.783 244.244 265.783 244.244L267.816 193.645L275.044 205.843C275.044 205.843 272.108 206.069 272.559 207.424C273.011 208.779 274.366 211.942 274.366 211.942C274.366 211.942 282.498 211.264 285.66 212.62C288.822 213.975 289.5 216.46 290.404 216.234C291.308 216.008 295.374 213.749 296.729 211.265C298.084 208.78 297.858 207.651 297.181 207.199C297.181 207.199 297.407 203.811 296.955 202.23C296.503 200.649 292.889 197.26 290.856 195.905C288.823 194.55 287.242 190.71 287.242 190.71C287.242 190.71 274.141 154.116 272.108 152.535C270.075 150.954 230.996 140.563 230.996 140.563L214.506 140.788Z" fill="#161815" stroke="#161815" stroke-miterlimit="10" stroke-linecap="round" stroke-linejoin="round"/>
<path d="M241.682 100.159C241.682 100.159 242.837 106.222 244.425 111.274C246.013 116.326 244.425 128.884 243.848 132.348C243.271 135.812 239.085 136.39 238.074 136.39C237.064 136.39 237.064 136.39 237.064 136.39C237.064 136.39 237.353 151.979 237.353 153.711C237.353 155.443 236.776 161.217 230.424 163.382C224.073 165.547 216.422 162.66 214.257 157.608C212.092 152.556 209.638 105.932 209.638 105.932C209.638 105.932 208.628 100.303 213.535 96.4051C218.443 92.5081 228.691 92.7961 234.032 93.5181C239.372 94.2401 241.682 100.159 241.682 100.159Z" fill="white" stroke="#263238" stroke-miterlimit="10" stroke-linecap="round" stroke-linejoin="round"/>
<path d="M241.104 115.748C241.104 115.748 244.135 114.738 245.29 113.005C246.445 111.273 241.537 110.118 240.527 109.108C239.517 108.098 239.372 102.179 239.372 102.179H241.248" fill="white"/>
<path d="M241.104 115.748C241.104 115.748 244.135 114.738 245.29 113.005C246.445 111.273 241.537 110.118 240.527 109.108C239.517 108.098 239.372 102.179 239.372 102.179H241.248" stroke="#263238" stroke-miterlimit="10" stroke-linecap="round" stroke-linejoin="round"/>
<path d="M227.103 116.614C227.103 116.614 231.578 121.955 234.465 121.81C237.352 121.666 241.249 120.944 241.249 120.944" stroke="#263238" stroke-miterlimit="10" stroke-linecap="round" stroke-linejoin="round"/>
<path d="M228.835 115.604L225.371 117.336" stroke="#263238" stroke-miterlimit="10" stroke-linecap="round" stroke-linejoin="round"/>
<path d="M227.536 103.045C227.536 103.045 228.691 100.88 232.732 101.457" stroke="#263238" stroke-miterlimit="10" stroke-linecap="round" stroke-linejoin="round"/>
<path d="M232.299 108.242C232.299 109.278 231.847 110.119 231.289 110.119C230.731 110.119 230.279 109.279 230.279 108.242C230.279 107.206 230.731 106.366 231.289 106.366C231.847 106.365 232.299 107.205 232.299 108.242Z" fill="#263238"/>
<path d="M242.547 108.751C242.547 109.787 241.906 109.696 241.348 109.696C240.79 109.696 240.526 109.788 240.526 108.751C240.526 107.715 240.978 106.874 241.536 106.874C242.095 106.874 242.547 107.715 242.547 108.751Z" fill="#263238"/>
<path d="M237.063 136.389C237.063 136.389 231.722 136.389 229.268 135.812C226.814 135.235 220.03 131.337 220.03 131.337C220.03 131.337 224.938 137.255 228.979 139.276C233.021 141.297 236.629 140.719 236.629 140.719L237.063 136.389Z" fill="#263238"/>
<path d="M211.946 114.882C211.946 114.882 215.988 114.16 216.276 113.294C216.565 112.428 212.523 108.386 215.121 106.077C217.719 103.767 221.905 102.468 221.761 101.025C221.617 99.582 216.276 97.849 220.606 95.251C224.936 92.653 237.35 94.385 239.227 96.261C241.103 98.138 241.681 100.88 243.269 99.725C244.857 98.57 248.899 91.497 247.455 89.043C246.012 86.589 242.836 89.476 242.836 89.476C242.836 89.476 240.527 81.826 238.217 84.28C235.907 86.734 235.907 89.043 235.907 89.043C235.907 89.043 221.04 86.733 209.492 91.93C197.944 97.126 207.038 115.747 207.038 115.747L211.946 114.882Z" fill="#6DE754" stroke="#263238" stroke-miterlimit="10" stroke-linecap="round" stroke-linejoin="round"/>
<path d="M213.679 116.758C213.679 116.758 209.204 109.829 207.039 111.417C204.874 113.005 204.441 122.243 207.328 123.109C210.215 123.975 212.236 121.954 212.236 121.954" fill="white"/>
<path d="M213.679 116.758C213.679 116.758 209.204 109.829 207.039 111.417C204.874 113.005 204.441 122.243 207.328 123.109C210.215 123.975 212.236 121.954 212.236 121.954" stroke="#263238" stroke-miterlimit="10" stroke-linecap="round" stroke-linejoin="round"/>
<path d="M243.57 144.143C243.57 144.143 246.691 143.623 248.251 141.542C249.811 139.461 251.198 141.369 250.331 143.969C249.464 146.57 244.61 149.17 244.61 149.17L243.57 144.143Z" fill="white" stroke="#263238" stroke-miterlimit="10" stroke-linecap="round" stroke-linejoin="round"/>
<path d="M239.929 139.288C239.929 139.288 231.781 141.542 231.087 143.969C230.394 146.396 230.422 163.382 230.422 163.382C230.422 163.382 184.97 190.953 182.196 192.34C179.422 193.727 176.301 193.9 174.221 196.328C172.14 198.755 175.955 205.17 175.955 205.17C175.955 205.17 172.488 205.864 173.528 207.944C174.568 210.024 175.435 208.984 175.435 208.984C175.435 208.984 175.533 216.899 175.955 218.693C176.648 221.64 181.2 222.008 183.237 221.294C188.925 219.298 236.982 166.682 236.982 166.682C236.982 166.682 239.756 166.162 240.276 164.081C240.796 162 240.796 161.134 240.796 161.134C240.796 161.134 244.957 161.134 245.65 160.094C246.343 159.054 247.037 156.627 247.21 154.893C247.383 153.159 245.476 146.571 245.476 146.571C245.476 146.571 245.129 143.624 243.569 144.144C242.009 144.664 235.941 147.265 235.941 147.265C235.941 147.265 234.901 145.011 236.114 144.318C237.328 143.625 245.303 143.451 244.609 140.851C243.917 138.248 239.929 139.288 239.929 139.288Z" fill="white" stroke="#263238" stroke-miterlimit="10" stroke-linecap="round" stroke-linejoin="round"/>
<path d="M246.344 150.037C246.344 150.037 245.997 147.09 244.437 147.436C242.877 147.783 236.635 150.557 236.635 150.557" stroke="#263238" stroke-miterlimit="10" stroke-linecap="round" stroke-linejoin="round"/>
<path d="M246.864 153.158C246.864 153.158 246.691 151.251 245.13 151.424C243.57 151.597 237.351 153.71 237.351 153.71" stroke="#263238" stroke-miterlimit="10" stroke-linecap="round" stroke-linejoin="round"/>
<path d="M243.223 156.279L239.929 157.319C239.929 157.319 238.195 160.786 240.796 161.133" stroke="#263238" stroke-miterlimit="10" stroke-linecap="round" stroke-linejoin="round"/>
<path d="M235.942 147.263L233.168 148.824" stroke="#263238" stroke-miterlimit="10" stroke-linecap="round" stroke-linejoin="round"/>
<path d="M188.667 188.564C185.196 190.631 182.773 192.052 182.196 192.34C179.422 193.727 176.301 193.9 174.221 196.328C172.14 198.755 175.955 205.17 175.955 205.17C175.955 205.17 172.488 205.864 173.528 207.944C174.568 210.024 175.435 208.984 175.435 208.984C175.435 208.984 175.533 216.899 175.955 218.693C176.648 221.64 181.2 222.008 183.237 221.294C184.845 220.73 189.843 216.115 196.184 209.789C191.067 204.569 189.284 194.549 188.667 188.564Z" fill="#161815" stroke="#161815" stroke-miterlimit="10" stroke-linecap="round" stroke-linejoin="round"/>
<path d="M267.815 231.821C267.815 231.821 259.909 239.275 259.909 240.631C259.909 241.986 261.49 243.342 262.394 242.438C263.298 241.534 271.204 236.791 271.429 235.21C271.655 233.628 270.526 230.24 267.815 231.821Z" fill="white" stroke="#263238" stroke-miterlimit="10" stroke-linecap="round" stroke-linejoin="round"/>
<path d="M270.741 236.108C270.741 236.108 272.797 237.204 272.934 238.849C273.071 240.494 264.574 247.072 262.107 246.798C259.64 246.524 262.394 242.437 262.394 242.437L270.741 236.108Z" fill="white" stroke="#263238" stroke-miterlimit="10" stroke-linecap="round" stroke-linejoin="round"/>
<path d="M272.249 240.905C272.249 240.905 273.345 243.372 272.66 244.879C271.975 246.387 265.944 248.031 264.026 247.894C262.107 247.757 263.752 246.524 263.752 246.524C263.752 246.524 271.975 241.865 272.249 240.905Z" fill="white" stroke="#263238" stroke-miterlimit="10" stroke-linecap="round" stroke-linejoin="round"/>
<path d="M271.701 246.25C271.701 246.25 271.838 248.443 271.153 249.402C270.468 250.361 266.904 252.28 265.26 251.184C263.615 250.088 269.235 247.072 269.235 247.072L271.701 246.25Z" fill="white" stroke="#263238" stroke-miterlimit="10" stroke-linecap="round" stroke-linejoin="round"/>
</svg>
