<svg width="577" height="437" viewBox="0 0 577 437" fill="none" xmlns="http://www.w3.org/2000/svg">
<g clip-path="url(#clip0_169_9)">
<path d="M554.812 305.687C554.812 305.687 582.184 165.346 507.618 85.7189C441.796 15.4299 337.584 -11.9081 252.639 46.2149C222.372 66.9249 200.342 107.131 164.985 119.559C125.342 133.494 74.372 138.47 37.56 198.19C0.748024 257.91 13.963 334.551 63.045 375.359C112.128 416.168 198.022 376.354 275.421 373.368C352.819 370.383 514.225 478.874 554.812 305.687Z" fill="#6DE754"/>
<path d="M102.38 54.51C102.38 54.51 102.38 45.979 90.437 34.037C78.494 22.094 70.817 15.27 70.817 15.27C70.817 15.27 64.846 34.891 75.935 46.834C87.025 58.777 102.38 69.867 102.38 69.867V54.51Z" fill="white"/>
<path d="M85.047 107.787C85.047 107.787 85.047 99.2559 73.104 87.3129C61.161 75.3699 53.484 68.5459 53.484 68.5459C53.484 68.5459 47.512 88.1669 58.602 100.11C69.692 112.053 85.047 123.142 85.047 123.142V107.787Z" fill="white"/>
<path d="M101.629 69.04C101.629 69.04 102.531 60.557 115.668 49.943C128.806 39.329 137.162 33.354 137.162 33.354C137.162 33.354 141.027 53.496 128.737 64.2C116.447 74.904 100.006 84.31 100.006 84.31L101.629 69.04Z" fill="white"/>
<path d="M80.69 131.958C80.69 131.958 82.478 123.617 96.658 114.441C110.838 105.266 119.775 100.201 119.775 100.201C119.775 100.201 121.503 120.637 108.157 129.991C94.811 139.345 77.473 146.971 77.473 146.971L80.69 131.958Z" fill="white"/>
<path d="M84.626 200.558C84.626 200.558 84.626 192.027 96.569 180.084C108.512 168.141 116.19 161.316 116.19 161.316C116.19 161.316 122.161 180.937 111.071 192.879C99.981 204.822 84.626 215.912 84.626 215.912V200.558Z" fill="#92E3A9"/>
<path d="M84.427 217.301C84.427 217.301 85.639 208.857 75.515 195.338C65.391 181.819 58.76 173.973 58.76 173.973C58.76 173.973 50.061 192.546 59.341 205.944C68.621 219.341 82.244 232.501 82.244 232.501L84.427 217.301Z" fill="white"/>
<path d="M72.651 266.925C72.651 266.925 72.651 258.395 84.594 246.452C96.537 234.509 104.215 227.685 104.215 227.685C104.215 227.685 110.186 247.305 99.097 259.248C88.007 271.191 72.652 282.281 72.652 282.281L72.651 266.925Z" fill="white"/>
<path d="M80.626 311.916C80.626 311.916 78.465 303.664 86.994 289.085C95.522 274.506 101.221 265.96 101.221 265.96C101.221 265.96 111.967 283.429 104.264 297.791C96.561 312.153 84.514 326.771 84.514 326.771L80.626 311.916Z" fill="#92E3A9"/>
<path d="M103.462 52.324C102.763 61.442 101.727 70.876 100.191 78.812C95.47 103.204 83.668 118.941 78.947 140.972C74.226 163.003 87.779 191.386 84.15 219.684C80.52 247.982 69.505 263.719 72.652 282.603C75.799 301.487 92.323 352.631 92.323 352.631" stroke="white" stroke-width="1.2008" stroke-miterlimit="10" stroke-linecap="round" stroke-linejoin="round"/>
<path d="M101.511 74.709L114.382 64.832" stroke="#6DE754" stroke-width="1.2008" stroke-miterlimit="10" stroke-linecap="round" stroke-linejoin="round"/>
<path d="M102.11 63.3361L96.722 53.7581" stroke="#6DE754" stroke-width="1.2008" stroke-miterlimit="10" stroke-linecap="round" stroke-linejoin="round"/>
<path d="M79.661 139.96C79.661 139.96 90.436 131.879 101.511 123.797" stroke="#6DE754" stroke-width="1.2008" stroke-miterlimit="10" stroke-linecap="round" stroke-linejoin="round"/>
<path d="M85.047 123.141C85.047 123.141 76.07 105.538 65.893 93.865" stroke="#6DE754" stroke-width="1.2008" stroke-miterlimit="10" stroke-linecap="round" stroke-linejoin="round"/>
<path d="M85.049 212.693C85.049 212.693 93.43 196.231 108.096 181.863" stroke="#6DE754" stroke-width="1.2008" stroke-miterlimit="10" stroke-linecap="round" stroke-linejoin="round"/>
<path d="M82.954 224.666C82.954 224.666 77.566 211.796 71.281 202.517C64.995 193.238 64.097 192.041 64.097 192.041" stroke="#6DE754" stroke-width="1.2008" stroke-miterlimit="10" stroke-linecap="round" stroke-linejoin="round"/>
<path d="M72.651 282.602C72.651 282.602 76.967 271.658 82.355 262.978C87.742 254.298 94.926 246.516 94.926 246.516" stroke="#6DE754" stroke-width="1.2008" stroke-miterlimit="10" stroke-linecap="round" stroke-linejoin="round"/>
<path d="M84.515 326.77C84.515 326.77 83.253 316.555 87.743 307.875C92.233 299.195 97.321 287.821 99.416 283.331" stroke="#6DE754" stroke-width="1.2008" stroke-miterlimit="10" stroke-linecap="round" stroke-linejoin="round"/>
<path d="M24.173 168.475C24.173 168.475 23.247 163.125 29.44 154.34C35.633 145.554 39.706 140.441 39.706 140.441C39.706 140.441 45.581 152.096 39.923 160.789C34.265 169.482 25.84 178.103 25.84 178.103L24.173 168.475Z" fill="white"/>
<path d="M40.826 200.002C40.826 200.002 39.9 194.652 46.093 185.867C52.285 177.081 56.359 171.968 56.359 171.968C56.359 171.968 62.233 183.624 56.576 192.317C50.918 201.01 42.493 209.632 42.493 209.632L40.826 200.002Z" fill="white"/>
<path d="M26.221 177.505C26.221 177.505 24.735 172.283 15.344 167.054C5.95301 161.824 0.0650021 158.984 0.0650021 158.984C0.0650021 158.984 -0.171998 172.034 8.697 177.413C17.566 182.791 28.897 186.904 28.897 186.904L26.221 177.505Z" fill="white"/>
<path d="M46.182 214.687C46.182 214.687 44.155 209.65 34.267 205.436C24.379 201.222 18.225 199.016 18.225 199.016C18.225 199.016 19.36 212.019 28.744 216.436C38.129 220.853 49.829 223.753 49.829 223.753L46.182 214.687Z" fill="white"/>
<path d="M51.16 258.131C51.16 258.131 50.234 252.781 41.448 246.589C32.662 240.396 27.107 236.95 27.107 236.95C27.107 236.95 25.492 249.902 33.743 256.187C41.994 262.472 52.827 267.759 52.827 267.759L51.16 258.131Z" fill="white"/>
<path d="M53.103 268.609C53.103 268.609 51.426 263.445 56.308 253.869C61.189 244.292 64.495 238.652 64.495 238.652C64.495 238.652 71.966 249.354 67.601 258.763C63.236 268.172 56.122 277.903 56.122 277.903L53.103 268.609Z" fill="white"/>
<path d="M68.093 311.759C68.093 311.759 68.712 306.365 77.131 299.681C85.549 292.997 90.898 289.239 90.898 289.239C90.898 289.239 93.249 302.078 85.371 308.824C77.493 315.57 66.979 321.467 66.979 321.467L68.093 311.759Z" fill="white"/>
<path d="M65.875 298.449C65.875 298.449 64.949 293.099 56.163 286.907C47.378 280.714 41.822 277.268 41.822 277.268C41.822 277.268 40.208 290.22 48.458 296.505C56.709 302.79 67.542 308.078 67.542 308.078L65.875 298.449Z" fill="white"/>
<path d="M65.758 327.527C65.758 327.527 66.217 322.117 59.286 313.902C52.355 305.686 47.854 300.945 47.854 300.945C47.854 300.945 43.011 313.065 49.401 321.236C55.791 329.406 64.932 337.265 64.932 337.265L65.758 327.527Z" fill="white"/>
<path d="M23.257 167.222C24.685 172.864 26.359 178.667 28.184 183.477C33.792 198.26 42.902 206.847 48.254 220.15C53.606 233.453 48.189 252.723 53.536 270.074C58.884 287.424 67.5 296.097 67.576 308.281C67.652 320.464 62.843 354.33 62.843 354.33" stroke="white" stroke-width="1.2008" stroke-miterlimit="10" stroke-linecap="round" stroke-linejoin="round"/>
<path d="M26.91 181.047L17.768 176.25" stroke="#6DE754" stroke-width="1.2008" stroke-miterlimit="10" stroke-linecap="round" stroke-linejoin="round"/>
<path d="M25.3 173.98L27.639 167.389" stroke="#6DE754" stroke-width="1.2008" stroke-miterlimit="10" stroke-linecap="round" stroke-linejoin="round"/>
<path d="M47.696 219.593C47.696 219.593 40.062 215.695 32.24 211.829" stroke="#6DE754" stroke-width="1.2008" stroke-miterlimit="10" stroke-linecap="round" stroke-linejoin="round"/>
<path d="M42.493 209.631C42.493 209.631 46.212 197.618 51.326 189.193" stroke="#6DE754" stroke-width="1.2008" stroke-miterlimit="10" stroke-linecap="round" stroke-linejoin="round"/>
<path d="M52.213 265.787C52.213 265.787 45.17 256.374 34.413 248.956" stroke="#6DE754" stroke-width="1.2008" stroke-miterlimit="10" stroke-linecap="round" stroke-linejoin="round"/>
<path d="M54.827 273.068C54.827 273.068 56.808 264.412 59.742 257.911C62.677 251.41 63.11 250.562 63.11 250.562" stroke="#6DE754" stroke-width="1.2008" stroke-miterlimit="10" stroke-linecap="round" stroke-linejoin="round"/>
<path d="M67.162 317.522C67.162 317.522 73.222 310.093 76.994 307.315C80.766 304.535 83.379 301.763 83.379 301.763" stroke="#6DE754" stroke-width="1.2008" stroke-miterlimit="10" stroke-linecap="round" stroke-linejoin="round"/>
<path d="M67.577 308.28C67.577 308.28 63.682 301.886 59.361 297.027C55.04 292.169 49.691 288.068 49.691 288.068" stroke="#6DE754" stroke-width="1.2008" stroke-miterlimit="10" stroke-linecap="round" stroke-linejoin="round"/>
<path d="M64.932 337.264C64.932 337.264 64.614 330.721 60.856 325.766C57.098 320.81 52.673 314.23 50.871 311.642" stroke="#6DE754" stroke-width="1.2008" stroke-miterlimit="10" stroke-linecap="round" stroke-linejoin="round"/>
<path d="M100.063 435.535H50.217C48.049 435.535 46.291 433.777 46.291 431.609L33.927 349.058H116.353L103.989 431.609C103.989 433.778 102.231 435.535 100.063 435.535Z" fill="white" stroke="#263238" stroke-width="1.2008" stroke-miterlimit="10" stroke-linecap="round" stroke-linejoin="round"/>
<path d="M374.429 35.1085L362.542 46.9956L374.429 58.8827L386.316 46.9956L374.429 35.1085Z" stroke="black" stroke-width="1.2008" stroke-miterlimit="10" stroke-linecap="round" stroke-linejoin="round"/>
<path d="M252.674 1.48022L246.191 7.96362L252.674 14.447L259.158 7.96362L252.674 1.48022Z" stroke="white" stroke-width="1.2008" stroke-miterlimit="10" stroke-linecap="round" stroke-linejoin="round"/>
<path d="M523.646 60.9404L517.162 67.4238L523.646 73.9072L530.129 67.4238L523.646 60.9404Z" stroke="white" stroke-width="1.2008" stroke-miterlimit="10" stroke-linecap="round" stroke-linejoin="round"/>
<path d="M182.311 81.8152C182.311 79.1622 180.161 77.0122 177.508 77.0122C174.855 77.0122 172.705 79.1622 172.705 81.8152C172.705 84.4682 174.855 86.6182 177.508 86.6182C180.161 86.6182 182.311 84.4682 182.311 81.8152Z" stroke="white" stroke-width="1.2008" stroke-miterlimit="10" stroke-linecap="round" stroke-linejoin="round"/>
<path d="M555.747 342.38C555.747 339.727 553.596 337.577 550.944 337.577C548.292 337.577 546.141 339.727 546.141 342.38C546.141 345.033 548.291 347.183 550.944 347.183C553.597 347.183 555.747 345.033 555.747 342.38Z" stroke="#263238" stroke-width="1.2008" stroke-miterlimit="10" stroke-linecap="round" stroke-linejoin="round"/>
<path d="M439.273 99.8272C439.273 97.1742 437.123 95.0242 434.47 95.0242C431.817 95.0242 429.667 97.1742 429.667 99.8272C429.667 102.48 431.817 104.63 434.47 104.63C437.123 104.63 439.273 102.479 439.273 99.8272Z" stroke="black" stroke-width="1.2008" stroke-miterlimit="10" stroke-linecap="round" stroke-linejoin="round"/>
<path d="M63.435 135.849C63.435 133.196 61.284 131.046 58.632 131.046C55.979 131.046 53.829 133.196 53.829 135.849C53.829 138.502 55.979 140.652 58.632 140.652C61.285 140.652 63.435 138.502 63.435 135.849Z" stroke="white" stroke-width="1.2008" stroke-miterlimit="10" stroke-linecap="round" stroke-linejoin="round"/>
<path d="M540.345 413.912H87.607V132.78C87.607 125.746 93.309 120.044 100.343 120.044H527.61C534.644 120.044 540.346 125.746 540.346 132.78V413.912H540.345Z" fill="white" stroke="#263238" stroke-width="1.2008" stroke-miterlimit="10" stroke-linecap="round" stroke-linejoin="round"/>
<path d="M470.586 399.765H159.441V415.095H470.586V399.765Z" fill="#161815" stroke="#263238" stroke-width="1.2008" stroke-miterlimit="10" stroke-linecap="round" stroke-linejoin="round"/>
<path d="M470.586 407.146H159.441V415.095H470.586V407.146Z" fill="white" stroke="#263238" stroke-width="1.2008" stroke-miterlimit="10" stroke-linecap="round" stroke-linejoin="round"/>
<path d="M50.994 424.18C50.994 424.18 56.104 430.426 71.434 435.535H558.592C558.592 435.535 569.948 432.696 575.058 424.747L50.994 424.18Z" fill="white" stroke="#263238" stroke-width="1.2008" stroke-miterlimit="10" stroke-linecap="round" stroke-linejoin="round"/>
<path d="M572.3 424.932H53.815C51.683 424.932 49.955 423.204 49.955 421.072V416.853C49.955 414.721 51.683 412.993 53.815 412.993H572.3C574.432 412.993 576.16 414.721 576.16 416.853V421.072C576.16 423.204 574.432 424.932 572.3 424.932Z" fill="white" stroke="#263238" stroke-width="1.2008" stroke-miterlimit="10" stroke-linecap="round" stroke-linejoin="round"/>
<path d="M317.853 128.932C317.853 126.737 316.074 124.958 313.879 124.958C311.684 124.958 309.905 126.738 309.905 128.932C309.905 131.127 311.684 132.906 313.879 132.906C316.073 132.906 317.853 131.127 317.853 128.932Z" fill="#161815"/>
<path d="M521.978 143.003H105.973V378.096H521.978V143.003Z" fill="#161815" stroke="white" stroke-width="1.2008" stroke-miterlimit="10" stroke-linejoin="round"/>
<path d="M521.978 143.003H175.111V156.906H521.978V143.003Z" fill="#161815"/>
<path d="M126.19 206.524C131.263 204.423 133.672 198.607 131.57 193.534C129.469 188.461 123.653 186.052 118.58 188.153C113.507 190.255 111.098 196.07 113.199 201.143C115.301 206.216 121.117 208.625 126.19 206.524Z" stroke="white" stroke-width="1.2008" stroke-miterlimit="10" stroke-linejoin="round"/>
<path d="M122.377 235.823C127.868 235.823 132.319 231.372 132.319 225.881C132.319 220.39 127.868 215.939 122.377 215.939C116.886 215.939 112.435 220.39 112.435 225.881C112.435 231.372 116.886 235.823 122.377 235.823Z" stroke="white" stroke-width="1.2008" stroke-miterlimit="10" stroke-linejoin="round"/>
<path d="M126.191 263.613C131.264 261.512 133.673 255.696 131.571 250.623C129.47 245.55 123.654 243.141 118.581 245.243C113.508 247.344 111.099 253.16 113.2 258.233C115.302 263.306 121.118 265.715 126.191 263.613Z" stroke="white" stroke-width="1.2008" stroke-miterlimit="10" stroke-linejoin="round"/>
<path d="M122.377 292.91C127.868 292.91 132.319 288.459 132.319 282.968C132.319 277.477 127.868 273.026 122.377 273.026C116.886 273.026 112.435 277.477 112.435 282.968C112.435 288.459 116.886 292.91 122.377 292.91Z" stroke="white" stroke-width="1.2008" stroke-miterlimit="10" stroke-linejoin="round"/>
<path d="M122.377 321.454C127.868 321.454 132.319 317.003 132.319 311.512C132.319 306.021 127.868 301.57 122.377 301.57C116.886 301.57 112.435 306.021 112.435 311.512C112.435 317.003 116.886 321.454 122.377 321.454Z" stroke="white" stroke-width="1.2008" stroke-miterlimit="10" stroke-linejoin="round"/>
<path d="M132.199 341.652C133.079 336.232 129.398 331.126 123.978 330.246C118.558 329.366 113.451 333.047 112.572 338.467C111.692 343.887 115.373 348.994 120.793 349.873C126.213 350.753 131.319 347.072 132.199 341.652Z" stroke="white" stroke-width="1.2008" stroke-miterlimit="10" stroke-linejoin="round"/>
<path d="M496.652 164.945H154.769V372.127H496.652V164.945Z" stroke="white" stroke-width="1.2008" stroke-miterlimit="10" stroke-linejoin="round"/>
<path d="M155.31 288.73H497.062" stroke="white" stroke-width="1.2008" stroke-miterlimit="10" stroke-linejoin="round"/>
<path d="M352.39 301.278H469.014" stroke="white" stroke-width="1.2008" stroke-miterlimit="10" stroke-linejoin="round"/>
<path d="M352.39 311.612H469.014" stroke="white" stroke-width="1.2008" stroke-miterlimit="10" stroke-linejoin="round"/>
<path d="M352.39 321.946H469.014" stroke="white" stroke-width="1.2008" stroke-miterlimit="10" stroke-linejoin="round"/>
<path d="M352.39 332.279H469.014" stroke="white" stroke-width="1.2008" stroke-miterlimit="10" stroke-linejoin="round"/>
<path d="M352.39 342.613H469.014" stroke="white" stroke-width="1.2008" stroke-miterlimit="10" stroke-linejoin="round"/>
<path d="M352.39 352.947H469.014" stroke="white" stroke-width="1.2008" stroke-miterlimit="10" stroke-linejoin="round"/>
<path d="M320.303 170.076V171.277" stroke="white" stroke-width="1.2008" stroke-linejoin="round"/>
<path d="M320.303 173.653V281.753" stroke="white" stroke-width="1.2008" stroke-linejoin="round" stroke-dasharray="2.38 2.38"/>
<path d="M320.303 282.94V284.141" stroke="#263238" stroke-width="1.2008" stroke-linejoin="round"/>
<path d="M325.434 287.458C325.434 284.624 323.137 282.326 320.303 282.326C317.469 282.326 315.172 284.623 315.172 287.458C315.172 290.292 317.469 292.589 320.303 292.589C323.137 292.59 325.434 290.292 325.434 287.458Z" fill="#6DE754" stroke="white" stroke-width="1.2008" stroke-miterlimit="10" stroke-linejoin="round"/>
<path d="M320.227 284.141V291.02" stroke="white" stroke-width="0.6004" stroke-miterlimit="10" stroke-linejoin="round"/>
<path d="M323.666 287.581H316.787" stroke="white" stroke-width="0.6004" stroke-miterlimit="10" stroke-linejoin="round"/>
<path d="M275.679 231.654H194.859C191.494 231.654 188.765 228.926 188.765 225.56C188.765 222.195 191.493 219.466 194.859 219.466H275.679C279.044 219.466 281.773 222.194 281.773 225.56C281.773 228.926 279.044 231.654 275.679 231.654Z" stroke="white" stroke-width="1.2008" stroke-miterlimit="10" stroke-linejoin="round"/>
<path d="M242.73 299.802H161.877V357.554H242.73V299.802Z" fill="#6DE754" stroke="white" stroke-width="1.2008" stroke-miterlimit="10" stroke-linejoin="round"/>
<path d="M161.877 357.554L242.731 299.802" stroke="white" stroke-width="1.2008" stroke-miterlimit="10" stroke-linejoin="round"/>
<path d="M161.877 299.802L242.731 357.554" stroke="white" stroke-width="1.2008" stroke-miterlimit="10" stroke-linejoin="round"/>
<path d="M334.996 299.802H254.143V357.554H334.996V299.802Z" fill="#6DE754" stroke="white" stroke-width="1.2008" stroke-miterlimit="10" stroke-linejoin="round"/>
<path d="M254.143 357.554L334.996 299.802" stroke="white" stroke-width="1.2008" stroke-miterlimit="10" stroke-linejoin="round"/>
<path d="M254.143 299.802L334.996 357.554" stroke="white" stroke-width="1.2008" stroke-miterlimit="10" stroke-linejoin="round"/>
<path d="M132.319 254.425H154.179" stroke="white" stroke-width="1.2008" stroke-miterlimit="10" stroke-linejoin="round"/>
<path d="M476.127 172.001H327.956V277.837H476.127V172.001Z" fill="#6DE754" stroke="white" stroke-width="1.2008" stroke-miterlimit="10" stroke-linejoin="round"/>
<path d="M327.956 277.837L476.126 172.001" stroke="white" stroke-width="1.2008" stroke-miterlimit="10" stroke-linejoin="round"/>
<path d="M327.956 172.001L476.126 277.837" stroke="white" stroke-width="1.2008" stroke-miterlimit="10" stroke-linejoin="round"/>
<path d="M460.378 226.622C460.378 226.622 462.378 229.394 463.92 232.226C465.461 235.058 465.963 237.094 465.963 237.094C465.963 237.094 466.591 236.544 469.93 233.535C473.27 230.526 473.595 227.681 473.595 227.681L470.404 222.964C470.404 222.964 462.389 222.387 460.378 226.622Z" fill="white" stroke="#263238" stroke-width="1.2008" stroke-miterlimit="10" stroke-linecap="round" stroke-linejoin="round"/>
<path d="M457.138 208.993C457.138 208.993 456.049 212.146 455.063 212.276C454.077 212.406 451.138 211.038 451.463 213.503C451.788 215.968 453.741 217.466 453.741 217.466C453.741 217.466 453.056 225.581 453.465 226.781C453.874 227.981 454.497 228.902 457.455 228.512C460.413 228.122 462.878 227.797 462.878 227.797C462.878 227.797 463.65 227.946 464.915 228.03C466.18 228.114 466.157 228.25 468.33 225.706C470.502 223.162 471.836 225.361 471.283 221.171C470.73 216.981 470.126 214.302 467.796 211.85C465.467 209.4 457.138 208.993 457.138 208.993Z" fill="white" stroke="#263238" stroke-width="1.2008" stroke-miterlimit="10" stroke-linecap="round" stroke-linejoin="round"/>
<path d="M455.99 214.007C455.72 214.927 455.701 215.732 455.946 215.803C456.191 215.875 456.609 215.187 456.879 214.267C457.149 213.347 457.168 212.542 456.923 212.47C456.677 212.398 456.26 213.086 455.99 214.007Z" fill="#263238"/>
<path d="M482.853 195.185L465.824 182.338C465.824 182.338 463.135 181.143 463.135 178.753C463.135 176.363 462.836 175.467 463.135 173.077C463.434 170.687 463.135 169.492 464.33 169.492C465.525 169.492 465.824 172.181 465.824 172.181L466.72 169.193C466.72 169.193 468.811 168.595 469.11 170.089C469.409 171.583 471.799 172.479 471.201 174.57C470.604 176.661 468.512 179.649 468.512 179.649C468.512 179.649 484.346 186.52 487.334 187.417C490.322 188.313 495.802 190.851 495.204 193.838C494.606 196.826 491.66 205.777 491.66 205.777L482.853 195.185Z" fill="white" stroke="#263238" stroke-width="1.2008" stroke-miterlimit="10" stroke-linecap="round" stroke-linejoin="round"/>
<path d="M466.73 235.825C466.73 235.825 462.567 238.688 457.726 242.266C451.717 246.707 451.627 257.011 451.201 258.052C450.495 259.78 470.139 281.146 472.949 284.745C475.759 288.344 476.269 294.153 476.269 294.153L502.879 288.387C502.879 288.387 489.559 241.89 488.876 238.477C488.192 235.064 487.06 230.628 487.06 230.628C487.06 230.628 488.898 220.12 491.281 211.633C493.664 203.145 494.629 197.709 494.447 196.331C494.265 194.954 486.922 194.162 483.877 194.097C480.833 194.032 481.123 194.46 481.123 194.46C481.123 194.46 474.508 209.811 474.139 210.56C473.771 211.311 466.73 235.825 466.73 235.825Z" fill="white" stroke="#263238" stroke-width="1.2008" stroke-miterlimit="10" stroke-linecap="round" stroke-linejoin="round"/>
<path d="M476.269 294.154L474.939 307.459L458.529 350.478L454.981 400.594L461.634 401.038L474.495 352.253L491.792 320.32L499.775 349.591L524.411 398.144L530.709 394.423L515.297 344.713L506.427 293.71L502.88 288.388L476.269 294.154Z" fill="#263238" stroke="#263238" stroke-width="1.2008" stroke-miterlimit="10" stroke-linecap="round" stroke-linejoin="round"/>
<path d="M471.638 227.004C471.638 227.004 469.875 229.572 468.45 231.161C467.025 232.75 464.989 233.252 464.452 234.49C463.915 235.728 461.193 239.732 461.193 239.732C461.193 239.732 467.781 238.488 471.151 235.708C474.521 232.928 475.661 227.407 475.661 227.407C475.661 227.407 473.154 226.104 471.638 227.004Z" fill="white" stroke="#263238" stroke-width="1.2008" stroke-miterlimit="10" stroke-linecap="round" stroke-linejoin="round"/>
<path d="M437.221 281.223C437.221 281.223 411.169 272.978 408.648 271.788C406.127 270.598 403.725 270.868 401.382 271.868C399.04 272.868 396.7 272.104 396.638 273.137C396.576 274.17 398.094 274.781 398.946 274.417C399.798 274.054 402.291 273.997 402.291 273.997L392.283 278.268C392.283 278.268 392.067 280.122 393.405 280.307C394.742 280.491 396.656 281.437 398.632 281.349C400.608 281.261 409.129 275.863 409.129 275.863C409.129 275.863 415.927 279.097 422.375 283.453C428.824 287.81 438.828 292.502 442.152 291.938C445.475 291.374 449.379 285.992 448.887 283.73C446.781 274.048 437.221 281.223 437.221 281.223Z" fill="white" stroke="#263238" stroke-width="1.2008" stroke-miterlimit="10" stroke-linecap="round" stroke-linejoin="round"/>
<path d="M469.94 260.155C469.94 260.155 462.167 270.197 457.953 275.423C453.739 280.649 449.474 289.858 445.94 289.623C442.406 289.389 438.072 282.34 438.289 280.443C438.506 278.546 443.331 274.407 446.095 267.037C448.152 261.553 451.773 252.241 453.491 247.835C454.117 246.23 454.251 244.993 455.622 243.95L457.727 242.266" fill="white"/>
<path d="M469.94 260.155C469.94 260.155 462.167 270.197 457.953 275.423C453.739 280.649 449.474 289.858 445.94 289.623C442.406 289.389 438.072 282.34 438.289 280.443C438.506 278.546 443.331 274.407 446.095 267.037C448.152 261.553 451.773 252.241 453.491 247.835C454.117 246.23 454.251 244.993 455.622 243.95L457.727 242.266" stroke="#263238" stroke-width="1.2008" stroke-miterlimit="10" stroke-linecap="round" stroke-linejoin="round"/>
<path d="M438.288 280.444C438.412 279.355 440.056 277.523 441.955 274.771C442.691 276.056 444.284 279.236 446.406 280.769C448.36 282.181 451.414 283.385 452.695 283.872C449.364 287.961 447.865 289.752 445.939 289.624C442.406 289.389 438.071 282.34 438.288 280.444Z" fill="white" stroke="#263238" stroke-width="1.2008" stroke-miterlimit="10" stroke-linecap="round" stroke-linejoin="round"/>
<path d="M478.907 199.596C480.137 196.747 481.123 194.461 481.123 194.461C481.123 194.461 480.833 194.032 483.877 194.098C486.922 194.164 495.396 195.073 495.578 196.45C495.689 197.289 495.765 201.114 493.713 204.285C491.347 202.359 484.106 198.963 478.907 199.596Z" fill="white" stroke="#263238" stroke-width="1.2008" stroke-miterlimit="10" stroke-linecap="round" stroke-linejoin="round"/>
<path d="M464.26 267.887C464.26 267.887 468.653 264.589 475.228 262.582" stroke="#263238" stroke-width="1.2008" stroke-miterlimit="10" stroke-linecap="round" stroke-linejoin="round"/>
<path d="M463.076 215.985C463.076 215.985 452.26 208.133 455.605 201.171C458.95 194.209 463.899 191.801 468.447 193.96C472.995 196.119 471.562 198.565 471.562 198.565C471.562 198.565 476.557 198.408 478.31 202.189C480.063 205.97 477.677 208.793 477.677 208.793C477.677 208.793 480.383 212.198 480.261 216.979C480.139 221.76 471.767 228.632 470.074 229.106C468.381 229.58 467.037 226.999 467.037 226.999C467.037 226.999 469.475 222.665 468.391 222.055C467.307 221.446 464.61 223.808 464.61 223.808C464.61 223.808 463.261 224.989 462.871 222.031C462.48 219.072 463.076 215.985 463.076 215.985Z" fill="#263238" stroke="#263238" stroke-width="1.2008" stroke-miterlimit="10" stroke-linecap="round" stroke-linejoin="round"/>
<path d="M454.981 400.594C454.981 400.594 449.991 405.473 445.112 406.803C440.233 408.134 437.945 409.464 437.945 409.464L436.841 411.389C436.427 412.112 436.948 413.012 437.781 413.012H462.077C462.077 413.012 462.52 411.238 462.52 407.246C462.52 403.254 461.633 401.037 461.633 401.037L454.981 400.594Z" fill="white" stroke="#263238" stroke-width="1.2008" stroke-miterlimit="10" stroke-linecap="round" stroke-linejoin="round"/>
<path d="M524.411 398.144L524.054 401.846C524.054 401.846 522.518 405.685 520.215 407.221C517.912 408.757 515.096 408.757 515.096 410.292C515.096 411.828 515.096 413.108 515.096 413.108H524.566C524.566 413.108 526.614 413.364 529.429 410.804C532.244 408.244 532.756 405.941 534.804 404.661C536.852 403.381 536.852 401.589 535.828 398.774C534.804 395.958 530.709 394.423 530.709 394.423L524.411 398.144Z" fill="white" stroke="#263238" stroke-width="1.2008" stroke-miterlimit="10" stroke-linecap="round" stroke-linejoin="round"/>
</g>
<defs>
<clipPath id="clip0_169_9">
<rect width="577" height="437" fill="white"/>
</clipPath>
</defs>
</svg>
