<svg width="40" height="40" viewBox="0 0 40 40" fill="none" xmlns="http://www.w3.org/2000/svg">
<g clip-path="url(#clip0_160_204)">
<rect width="40" height="40" fill="#1A1E27"/>
<path fill-rule="evenodd" clip-rule="evenodd" d="M20.4167 4.99996C20.4167 2.46865 22.4687 0.416626 25 0.416626C27.5313 0.416626 29.5833 2.46865 29.5833 4.99996V13.3333C29.5833 15.8646 27.5313 17.9166 25 17.9166C22.4687 17.9166 20.4167 15.8646 20.4167 13.3333V4.99996ZM25 2.91663C23.8494 2.91663 22.9167 3.84937 22.9167 4.99996V13.3333C22.9167 14.4839 23.8494 15.4166 25 15.4166C26.1506 15.4166 27.0833 14.4839 27.0833 13.3333V4.99996C27.0833 3.84937 26.1506 2.91663 25 2.91663Z" fill="white"/>
<path fill-rule="evenodd" clip-rule="evenodd" d="M13.3333 10.4166C15.8646 10.4166 17.9167 12.4687 17.9167 15C17.9167 17.5313 15.8646 19.5833 13.3333 19.5833L5.00001 19.5833C2.4687 19.5833 0.416671 17.5313 0.416672 15C0.416672 12.4687 2.4687 10.4166 5.00001 10.4166L13.3333 10.4166ZM15.4167 15C15.4167 13.8494 14.4839 12.9166 13.3333 12.9166L5.00001 12.9166C3.84941 12.9166 2.91667 13.8494 2.91667 15C2.91667 16.1506 3.84941 17.0833 5.00001 17.0833L13.3333 17.0833C14.4839 17.0833 15.4167 16.1506 15.4167 15Z" fill="white"/>
<path fill-rule="evenodd" clip-rule="evenodd" d="M35 20.4166C37.5313 20.4166 39.5833 22.4687 39.5833 25C39.5833 27.5313 37.5313 29.5833 35 29.5833L26.6667 29.5833C24.1354 29.5833 22.0833 27.5313 22.0833 25C22.0833 22.4687 24.1354 20.4166 26.6667 20.4166L35 20.4166ZM37.0833 25C37.0833 23.8494 36.1506 22.9166 35 22.9166L26.6667 22.9166C25.5161 22.9166 24.5833 23.8494 24.5833 25C24.5833 26.1506 25.5161 27.0833 26.6667 27.0833L35 27.0833C36.1506 27.0833 37.0833 26.1506 37.0833 25Z" fill="white"/>
<path fill-rule="evenodd" clip-rule="evenodd" d="M19.5833 35C19.5833 37.5313 17.5313 39.5834 15 39.5834C12.4687 39.5834 10.4167 37.5313 10.4167 35L10.4167 26.6667C10.4167 24.1354 12.4687 22.0834 15 22.0834C17.5313 22.0834 19.5833 24.1354 19.5833 26.6667L19.5833 35ZM15 37.0834C16.1506 37.0834 17.0833 36.1506 17.0833 35L17.0833 26.6667C17.0833 25.5161 16.1506 24.5834 15 24.5834C13.8494 24.5834 12.9167 25.5161 12.9167 26.6667L12.9167 35C12.9167 36.1506 13.8494 37.0834 15 37.0834Z" fill="white"/>
<path fill-rule="evenodd" clip-rule="evenodd" d="M14.1667 2.91663C13.4763 2.91663 12.9167 3.47627 12.9167 4.16663C12.9167 4.85698 13.4763 5.41663 14.1667 5.41663C14.857 5.41663 15.4167 4.85698 15.4167 4.16663C15.4167 3.47627 14.857 2.91663 14.1667 2.91663ZM10.4167 4.16663C10.4167 2.09556 12.0956 0.416626 14.1667 0.416626C16.2377 0.416626 17.9167 2.09556 17.9167 4.16663C17.9167 6.23769 16.2377 7.91663 14.1667 7.91663C12.0956 7.91663 10.4167 6.23769 10.4167 4.16663Z" fill="white"/>
<path fill-rule="evenodd" clip-rule="evenodd" d="M35.8333 12.9166C35.143 12.9166 34.5833 13.4763 34.5833 14.1666C34.5833 14.857 35.143 15.4166 35.8333 15.4166C36.5237 15.4166 37.0833 14.857 37.0833 14.1666C37.0833 13.4763 36.5237 12.9166 35.8333 12.9166ZM32.0833 14.1666C32.0833 12.0956 33.7623 10.4166 35.8333 10.4166C37.9044 10.4166 39.5833 12.0956 39.5833 14.1666C39.5833 16.2377 37.9044 17.9166 35.8333 17.9166C33.7623 17.9166 32.0833 16.2377 32.0833 14.1666Z" fill="white"/>
<path fill-rule="evenodd" clip-rule="evenodd" d="M25.8333 34.5834C25.143 34.5834 24.5833 35.143 24.5833 35.8334C24.5833 36.5237 25.143 37.0834 25.8333 37.0834C26.5237 37.0834 27.0833 36.5237 27.0833 35.8334C27.0833 35.143 26.5237 34.5834 25.8333 34.5834ZM22.0833 35.8334C22.0833 33.7623 23.7623 32.0834 25.8333 32.0834C27.9044 32.0834 29.5833 33.7623 29.5833 35.8334C29.5833 37.9044 27.9044 39.5834 25.8333 39.5834C23.7623 39.5834 22.0833 37.9044 22.0833 35.8334Z" fill="white"/>
<path fill-rule="evenodd" clip-rule="evenodd" d="M4.16667 24.5834C3.47632 24.5834 2.91667 25.143 2.91667 25.8334C2.91667 26.5237 3.47632 27.0834 4.16667 27.0834C4.85703 27.0834 5.41667 26.5237 5.41667 25.8334C5.41667 25.143 4.85703 24.5834 4.16667 24.5834ZM0.416672 25.8334C0.416672 23.7623 2.0956 22.0834 4.16667 22.0834C6.23774 22.0834 7.91667 23.7623 7.91667 25.8334C7.91667 27.9044 6.23774 29.5834 4.16667 29.5834C2.0956 29.5834 0.416672 27.9044 0.416672 25.8334Z" fill="white"/>
</g>
<defs>
<clipPath id="clip0_160_204">
<rect width="40" height="40" fill="white"/>
</clipPath>
</defs>
</svg>
