<svg width="62" height="115" viewBox="0 0 62 115" fill="none" xmlns="http://www.w3.org/2000/svg">
<path d="M1.289 52.9951C1.289 52.9951 18.527 54.3551 19.246 67.0741C19.246 67.0741 1.79 75.1111 1.289 52.9951Z" fill="#6DE754" stroke="white" stroke-miterlimit="10" stroke-linecap="round" stroke-linejoin="round"/>
<path d="M35.389 56.153C35.389 56.153 45.019 43.133 60.58 49.81C60.58 49.81 51.078 65.551 35.389 56.153Z" fill="#6DE754" stroke="white" stroke-miterlimit="10" stroke-linecap="round" stroke-linejoin="round"/>
<path d="M59.261 15.046C59.261 15.046 62.03 40.095 39.23 33.197C39.23 33.197 46.47 14.782 59.261 15.046Z" fill="#6DE754" stroke="white" stroke-miterlimit="10" stroke-linecap="round" stroke-linejoin="round"/>
<path d="M31.267 1.10205C31.267 1.10205 49.299 10.8261 36.041 25.5811C36.041 25.5811 23.394 15.0431 31.267 1.10205Z" fill="#6DE754" stroke="white" stroke-miterlimit="10" stroke-linecap="round" stroke-linejoin="round"/>
<path d="M9.07898 23.485C9.07898 23.485 28.685 21.507 28.685 39.656C28.685 39.656 9.07898 40.428 9.07898 23.485Z" fill="#6DE754" stroke="white" stroke-miterlimit="10" stroke-linecap="round" stroke-linejoin="round"/>
<path d="M27.568 92.98C27.568 92.98 18.629 74.222 27.209 55.118C35.789 36.013 38.69 19.926 34.207 8.58496" stroke="white" stroke-miterlimit="10" stroke-linecap="round" stroke-linejoin="round"/>
<path d="M15.52 28.364C15.52 28.364 27.272 33.033 31.266 45.138" stroke="white" stroke-miterlimit="10" stroke-linecap="round" stroke-linejoin="round"/>
<path d="M53.064 25.0681C53.064 25.0681 46.273 34.3191 34.767 33.3201" stroke="white" stroke-miterlimit="10" stroke-linecap="round" stroke-linejoin="round"/>
<path d="M53.064 52.4712C53.064 52.4712 34.255 57.8902 26.78 56.1162" stroke="white" stroke-miterlimit="10" stroke-linecap="round" stroke-linejoin="round"/>
<path d="M6.91003 58.7231C6.91003 58.7231 15.317 67.9512 23.773 67.8062" stroke="white" stroke-miterlimit="10" stroke-linecap="round" stroke-linejoin="round"/>
<path d="M5.96399 78.1172H45.433L41.299 114.195H10.098L5.96399 78.1172Z" fill="#6DE754"/>
<path d="M46.135 82.4091H5.26196C4.71296 82.4091 4.26697 81.9641 4.26697 81.4141V78.3151C4.26697 77.7661 4.71196 77.3201 5.26196 77.3201H46.135C46.684 77.3201 47.13 77.7651 47.13 78.3151V81.4141C47.129 81.9641 46.684 82.4091 46.135 82.4091Z" fill="#6DE754"/>
<path d="M9.07898 82.4092H32.852" stroke="white" stroke-miterlimit="10" stroke-linecap="round" stroke-linejoin="round"/>
<path d="M37.335 82.4092H40.907" stroke="white" stroke-miterlimit="10" stroke-linecap="round" stroke-linejoin="round"/>
</svg>
